# xmcd
#
# Track frame offsets:
#	150
#	17271
#	29149
#	40682
#	56493
#	84381
#	104883
#	122038
#	140725
#	163033
#	178888
#	198050
#	214589
#	232500
#	248302
#	272047
#	287189
#	301376
#
# Disc length: 4380 seconds
#
# Revision: 1
# Processed by: cddbd v1.5.2PL0 Copyright (c) Steve Scherf et al.
# Submitted via: audiograbber 1.83.01
#
DISCID=f4111a12
DTITLE=Steve Earle - Magnetised Motherfuckers CD3
DYEAR=2007
DGENRE=Country
TTITLE0=Copperhead Road
TTITLE1=Sorry Dwayne
TTITLE2=You Know The Rest
TTITLE3=Valentine's Day
TTITLE4=Christmas In Washington
TTITLE5=This Land Is Your Land
TTITLE6=Copperhead Road
TTITLE7=I Ain't Ever Satisfied
TTITLE8=Sin City
TTITLE9=My Uncle
TTITLE10=Copperhead Road
TTITLE11=The Galway Girl
TTITLE12=Steve's Last Ramble
TTITLE13=I Feel Alright
TTITLE14=Copperhead Road
TTITLE15=Until The Day I Die
TTITLE16=Sara's Angel
TTITLE17=Goodbye
EXTD=
EXTT0=
EXTT1=
EXTT2=
EXTT3=
EXTT4=
EXTT5=
EXTT6=
EXTT7=
EXTT8=
EXTT9=
EXTT10=
EXTT11=
EXTT12=
EXTT13=
EXTT14=
EXTT15=
EXTT16=
EXTT17=
PLAYORDER=
